<svg width="683" height="352" viewBox="0 0 683 352" fill="none" xmlns="http://www.w3.org/2000/svg">
<path d="M360.631 4.80426C387.086 1.54696 445.68 10.1786 453.279 41.5025C455.903 56.3846 453.988 70.8466 454.401 86.0063C455.206 115.647 458.852 154.102 423.315 165.662C407.553 170.788 382.424 166.577 365.516 167.821C352.694 168.763 340.026 166.208 327.053 169.556C319.458 171.492 312.511 175.403 306.916 180.893C287.146 200.439 291.744 236.219 291.785 263.312C273.397 263.554 261.474 264.283 246.272 252.404C245.923 252.074 245.577 251.74 245.235 251.403C214.74 221.264 213.078 140.563 243.039 108.628C260.565 89.947 289.498 93.1376 312.917 93.1556L377.484 93.2178C377.655 88.4887 377.505 82.9644 377.496 78.1714C351.299 77.4955 321.987 78.1587 295.575 78.1579C295.455 62.3613 292.446 33.7538 302.772 22.8514C315.272 9.6542 343.559 6.10808 360.631 4.80426ZM331.651 57.3358C339.174 55.4041 343.674 47.7035 341.668 40.1994C339.662 32.6946 331.92 28.2692 324.437 30.3503C317.059 32.4028 312.71 40.0156 314.688 47.4154C316.667 54.8152 324.234 59.2405 331.651 57.3358Z" fill="#ffffff"/>
<path d="M464.353 89.485C479.071 89.3424 497.792 87.4092 509.109 99.5134C539.607 132.136 544.23 236.823 492.257 252.169C485.82 254.07 456.582 253.423 448.008 253.386L377.446 253.164C377.415 258.133 377.555 261.954 377.918 266.911C403.682 267.05 429.446 267.032 455.21 266.857C454.754 276.875 455.079 287.921 455.158 298C455.286 314.361 451.161 321.822 437.151 330.15C403.839 346.378 323.332 348.041 303.759 307.748C303.159 304.954 301.676 299.371 301.885 296.699C304.278 266.175 294.564 224.189 309.734 197.164C321.405 176.372 341.365 178.334 360.669 177.562C378.088 176.867 412.101 180.073 427.764 175.958C435.108 173.965 441.846 170.182 447.373 164.95C468.792 144.759 463.557 117.006 464.353 89.485ZM426.819 312.5C431.691 311.427 435.611 307.815 437.077 303.045C438.544 298.274 437.331 293.083 433.903 289.457C430.474 285.831 425.361 284.33 420.517 285.529C413.161 287.349 408.634 294.745 410.358 302.126C412.083 309.506 419.418 314.13 426.819 312.5Z" fill="#ffffff"/>
<path d="M560.729 0.173343C563.352 0.0143044 565.787 -0.13347 568.406 0.204112C575.225 1.06532 581.409 4.63919 585.561 10.117C595.356 23.294 590.394 38.2091 577.897 47.3104C582.086 59.152 586.136 72.8421 590.022 84.926C599.235 86.965 602.852 89.6042 606.642 98.307L622.996 98.3085C625.122 93.3701 627.934 90.3191 633.471 89.3454C636.882 88.7602 640.386 89.5524 643.215 91.5479C646.311 93.7617 648.311 97.1968 648.707 100.983C649.328 106.502 647.319 109.42 644.184 113.449C648.219 127.674 652.377 141.865 656.658 156.018C663.651 156.706 668.246 157.587 673.766 162.37C678.866 166.851 681.986 173.163 682.458 179.934C682.946 186.538 680.726 193.055 676.301 197.982C670.413 204.492 664.541 205.666 656.317 206.045C652.906 218.24 648.078 232.045 644.139 244.242C647.838 248.795 650.035 253.883 647.844 259.739C646.614 262.974 644.144 265.584 640.981 266.989C637.766 268.429 634.107 268.509 630.831 267.212C626.13 265.365 624.652 262.526 622.902 258.306L607.08 258.201C602.41 266.806 599.274 269.512 589.491 271.152C585.861 282.259 582.089 293.319 578.178 304.33C585.567 309.901 592.013 318.652 590.467 328.123C585.046 361.333 535.908 358.205 540.085 320.377L502.16 293.66C495.71 289.082 489.284 284.418 482.76 279.949C478.287 276.885 466.892 273.971 465.387 268.717L466.602 267.284C471.03 265.223 485.224 263.758 489.648 264.621L489.661 268.046C490.776 270.523 531.974 298.915 537.446 302.749L545.82 308.707C553.785 302.01 556.956 301.076 567.324 300.336L578.322 267.191C577.784 266.71 577.257 266.218 576.741 265.713C567.744 256.858 569.254 245.562 578.083 237.262C572.059 225.237 564.937 212.484 558.55 200.566C557.03 197.728 554.94 195.311 551.748 194.61C550.002 196.495 548.733 202.895 547.728 205.673C542.511 220.108 534.295 231.076 524.001 242.224C544.989 207.825 544.252 143.229 526.741 107.758C535.178 116.588 543.068 133.948 547.405 145.506C549.115 150.064 550.006 161.954 554.386 163.541C557.782 161.444 574.042 125.462 577.868 118.408C577.521 118.097 577.181 117.779 576.847 117.455C566.996 107.82 569.541 96.8554 578.614 87.9148C574.519 75.743 570.62 63.1407 566.67 50.891C556.41 49.5962 553.773 48.9788 546.26 42.0936C528.53 53.9232 507.9 63.2472 490.129 75.1774C488.43 76.3184 488.886 77.2472 488.744 79.2231C484.966 80.5585 468.907 79.497 465.742 77.7183L465.316 76.1969C466.989 71.9681 483.357 64.0364 488.185 61.2322C505.519 51.2353 522.792 41.1348 540.004 30.9309C539.631 14.0262 544.509 5.51765 560.729 0.173343ZM587.763 122.722C580.779 137.006 573.396 152.888 565.902 166.779C567.969 169.466 569.688 171.631 571.436 174.55C580.913 174.679 590.391 174.747 599.868 174.754C611.047 174.835 622.514 175.036 633.667 174.954C636.811 165.868 637.759 163.931 645.869 158.917L633.776 116.522C627.972 114.268 627.096 113.573 623.449 108.489L623.136 108.042L611.061 108.316C608.696 108.663 607.886 108.276 606.474 110.487C601.202 118.749 597.487 121.963 587.763 122.722ZM577.393 325.204C577.215 321.539 575.412 318.146 572.473 315.95C569.535 313.754 565.77 312.986 562.206 313.855C555.731 315.434 551.694 321.889 553.107 328.405C554.521 334.921 560.869 339.122 567.417 337.874C573.435 336.727 577.689 331.324 577.393 325.204ZM567.415 37.4297C573.924 36.3127 578.382 30.2429 577.503 23.6961C576.624 17.1485 570.721 12.4718 564.148 13.1132C559.679 13.5499 555.804 16.3931 554.046 20.5266C552.289 24.6601 552.929 29.4237 555.715 32.9466C558.501 36.4695 562.989 38.1889 567.415 37.4297ZM554.321 173.658C551.405 174.916 549.981 178.235 551.077 181.217C552.173 184.198 555.408 185.802 558.444 184.871C560.562 184.222 562.148 182.454 562.565 180.278C562.983 178.102 562.163 175.873 560.436 174.486C558.708 173.098 556.355 172.78 554.321 173.658ZM660.398 192.795C664.601 191.805 667.938 188.599 669.086 184.433C670.241 180.268 669.026 175.805 665.928 172.795C662.825 169.785 658.33 168.706 654.201 169.981C648.112 171.862 644.609 178.232 646.279 184.382C647.95 190.534 654.194 194.255 660.398 192.795ZM591.393 259.615C594.021 258.806 596.012 256.645 596.604 253.959C597.196 251.272 596.298 248.475 594.255 246.635C592.21 244.795 589.335 244.196 586.726 245.067C582.758 246.392 580.594 250.664 581.872 254.648C583.15 258.632 587.395 260.847 591.393 259.615ZM623.697 248.417C627.169 243.937 628.362 243.513 633.789 241.401C637.481 229.825 642.766 214.765 645.738 203.356C637.841 197.058 635.982 195.15 633.003 185.629C614.328 184.841 589.689 184.617 570.737 184.814C568.905 187.934 568.337 189.051 565.831 191.701C573.984 205.531 580.706 219.889 588.577 233.74C599.12 234.915 603.401 238.403 607.209 248.374C612.66 248.393 618.258 248.473 623.697 248.417ZM590.878 111.271C593.58 110.626 595.72 108.564 596.465 105.887C597.21 103.209 596.443 100.339 594.462 98.3888C592.482 96.4398 589.599 95.7204 586.935 96.5096C582.966 97.6851 580.654 101.809 581.723 105.81C582.791 109.81 586.851 112.232 590.878 111.271Z" fill="#ffffff"/>
<path d="M85.3315 190.691C111.598 190.488 137.865 190.466 164.132 190.627C175.984 190.656 188.265 190.736 200.091 190.522C211.378 190.316 210.858 202.11 202.027 202.267C168.535 202.862 134.973 202.348 101.467 202.505C95.962 202.531 90.118 202.678 84.658 202.387C74.203 202.595 7.48376 204.041 2.66726 201.368C1.06751 200.481 0.29651 199.048 0.0572596 197.268C-0.22249 195.189 0.548509 193.663 1.80926 192.102C6.49301 189.31 74.6838 190.514 85.3315 190.691Z" fill="#ffffff"/>
<path d="M85.3315 190.691C111.598 190.488 137.865 190.466 164.132 190.627C175.984 190.656 188.265 190.736 200.091 190.522C211.378 190.316 210.858 202.11 202.027 202.267C168.535 202.862 134.973 202.349 101.467 202.505C95.962 202.531 90.118 202.678 84.658 202.388C94.5228 200.903 113.382 202.828 123.924 200.79C127.944 200.013 130.502 195.412 132.813 192.137C118.35 191.643 98.7805 191.701 85.3315 190.691Z" fill="#ffffff"/>
<path d="M94.2783 124.35C88.1193 124.575 67.9781 125.552 78.1083 113.627C82.7696 110.912 156.653 111.862 166.043 112.431C174.96 111.726 214.973 109.314 218.472 117.411C218.492 121.553 215.682 123.974 211.563 124.163C197.067 124.824 182.457 124.257 167.941 124.416C144.175 124.053 119.561 124.942 95.9298 124.407C95.3785 124.392 94.828 124.373 94.2783 124.35Z" fill="#ffffff"/>
<path d="M166.043 112.431C174.96 111.726 214.973 109.314 218.472 117.411C218.492 121.553 215.682 123.974 211.563 124.163C197.067 124.824 182.457 124.257 167.941 124.416C144.175 124.053 119.561 124.942 95.9298 124.407C95.3786 124.392 94.8281 124.373 94.2783 124.35C97.4028 124.028 101.892 123.976 105.108 124.04C127.44 124.484 150.343 122.629 172.55 122.658C176.331 120.206 179.799 116.273 183.748 113.273C178.879 113.284 170.398 113.719 166.043 112.431Z" fill="#ffffff"/>
<path d="M165.567 239.174C164.112 239.42 149.409 239.687 148.258 239.429C137.817 237.093 100.668 245.193 98.0786 233.624C99.3558 230.354 102.219 228.542 105.753 228.36C121.241 227.564 137.078 228.12 152.631 228.226C162.006 228.17 209.191 227.053 215.37 229.668C217.414 231.878 216.822 230.801 217.528 233.823C214.931 240.914 203.96 239.81 197.529 239.591C187.192 239.24 175.769 240.012 165.567 239.174Z" fill="#ffffff"/>
<path d="M165.567 239.174C164.112 239.42 149.409 239.687 148.258 239.429C137.817 237.093 100.668 245.193 98.0786 233.624C99.3558 230.354 102.219 228.542 105.753 228.36C121.241 227.564 137.078 228.12 152.631 228.226C160.115 229.881 170.073 227.892 176.543 229.379C174.129 230.41 142.139 229.856 136.658 229.96C134.382 234.125 133.83 235.141 130.626 238.554C135.081 238.522 163.711 237.87 165.567 239.174Z" fill="#ffffff"/>
<path d="M158.526 77.3239C195.534 76.2143 233.445 78.1656 270.544 77.3351C274.188 77.2533 278.411 76.9465 281.334 79.2271L280.945 80.4056C278.29 82.164 273.852 83.0185 270.627 83.8452C267.405 84.9285 258.988 87.8542 255.738 87.9142C225.127 88.4828 194.391 88.3561 163.768 88.2038C156.029 88.1655 152.125 83.6479 158.526 77.3239Z" fill="#ffffff"/>
<path d="M126.525 162.896C117.615 162.733 65.1235 163.948 60.9685 161.825C56.29 156.512 59.6013 151.383 66.3648 151.235C74.6223 151.053 82.8408 151.221 91.099 151.241L142.968 151.343C135.252 153.39 133.791 160.103 126.525 162.896Z" fill="#ffffff"/>
<path d="M196.242 266.353C210.132 265.621 228.995 266.098 243.024 266.663C247.046 266.825 260.496 271.27 265.487 272.349C273.798 274.147 281.443 274.726 289.704 276.051C280.921 277.473 246.285 277.107 235.507 276.92C222.465 276.695 195.376 277.777 183.265 276.78C181.549 276.432 181.28 276.422 179.617 275.703L180.003 273.801C182.416 271.349 183.117 270.257 185.022 267.433C188.932 267.425 192.637 267.83 196.242 266.353Z" fill="#ffffff"/>
<path d="M142.968 151.343C150.498 151.086 203.784 150.247 206.578 152.629C207.857 153.719 208.587 155.702 208.553 157.355C208.524 158.73 207.881 159.722 207.126 160.82C203.3 164.1 184.143 162.867 178.16 162.87L126.525 162.896C133.791 160.103 135.252 153.39 142.968 151.343Z" fill="#ffffff"/>
<path d="M183.265 276.779C174.581 276.903 142.789 280.286 140.857 271.519C141.186 270.168 141.555 269.113 142.569 268.11C146.664 264.061 187.983 266.273 196.242 266.353C192.637 267.83 188.932 267.425 185.022 267.433C183.117 270.257 182.416 271.349 180.003 273.8L179.617 275.703C181.28 276.422 181.549 276.432 183.265 276.779Z" fill="#ffffff"/>
<path d="M99.4173 266.356C106.501 265.966 124.614 263.579 127.341 271.151C127.103 273.981 126.575 274.443 124.815 276.732C117.68 276.986 98.7243 279.677 96.373 272.08C96.9505 269.027 97.3203 268.692 99.4173 266.356Z" fill="#ffffff"/>
<path d="M36.4098 150.887C45.3685 151.481 51.1218 157.51 41.7768 163.031L41.2173 163.023C40.4155 162.998 36.571 163.021 35.98 162.761C27.8568 159.193 29.461 153.627 36.4098 150.887Z" fill="#ffffff"/>
<path d="M71.7235 228.138L72.1593 228.124C80.845 227.875 89.0643 232.676 79.5078 239.601C74.3148 239.753 67.7425 239.882 67.5955 233.064C68.842 230.222 69.196 229.975 71.7235 228.138Z" fill="#ffffff"/>
<path d="M127.931 77.3637C133.167 77.0433 139.58 76.7148 140.484 83.2211C139.617 85.7545 139.443 86.02 137.489 87.852C132.303 88.5384 126.699 88.8137 125.046 83.0253C125.474 80.1266 126.038 79.6607 127.931 77.3637Z" fill="#ffffff"/>
</svg>
