<svg width="681" height="226" viewBox="0 0 681 226" fill="none" xmlns="http://www.w3.org/2000/svg">
<path d="M201.427 12.1681L262.05 12.1321C276.105 12.1284 290.468 11.3804 304.32 13.8568C326.003 17.7787 345.315 32.4508 351.037 54.4927C362.745 99.5487 339.315 135.317 292.508 139.185C276.128 139.895 256.103 139.303 239.445 139.314L239.558 195.657C227.108 195.968 213.757 195.763 201.24 195.788C201.967 177.728 201.33 154.887 201.33 136.519L201.427 12.1681ZM239.595 104.933C258.503 105.141 292.935 108.84 307.447 96.9883C321.345 82.173 319.005 54.9518 298.08 49.0779C282.495 44.705 256.62 46.63 239.595 46.7471C239.468 66.1415 239.468 85.5375 239.595 104.933Z" fill="#012F61"/>
<path d="M133.125 12.072C146.843 12.3758 161.273 12.1493 175.05 12.1335C173.963 29.345 174.84 55.9945 174.84 74.0049L174.825 195.798L153.457 195.8L133.005 195.859L133.058 115.579C104.918 114.565 69.87 115.555 41.2575 115.462L41.2874 195.688L0 195.864C0.855 177.084 0.142463 152.959 0.149963 133.599V12.1448L41.2725 12.1658C41.16 34.408 41.1825 56.6509 41.3175 78.8931L133.14 79.0394C132.953 56.7177 132.945 34.3945 133.125 12.072Z" fill="#012F61"/>
<path d="M474.195 12.1712C488.753 12.0984 503.31 12.1029 517.868 12.1855C543.225 39.8132 570.405 72.8963 595.058 101.625C580.29 116.29 564.173 134.741 550.035 150.177C528.893 173.287 507.428 196.097 485.64 218.601L481.935 222.357C469.08 222.479 456.225 222.43 443.37 222.212C452.693 209.338 469.358 190.393 479.933 177.908C502.605 151.139 525.533 124.587 548.708 98.2547C540.585 89.7589 531.308 78.4191 523.38 69.2834L474.195 12.1712Z" fill="#177ACE"/>
<path d="M448.477 77.9442C458.595 78.3201 470.557 78.1085 480.802 78.1498C469.515 106.707 456.24 136.351 444.188 164.791C427.35 204.754 419.198 236.7 366.585 222.123C368.273 214.391 372.36 201.394 374.738 193.809C394.11 198.45 399.63 194.566 406.38 176.291C402.45 166.238 395.108 151.741 390.398 141.569C380.678 120.343 370.777 99.1984 360.705 78.1385C370.95 77.6786 384.758 78.0928 395.265 78.1108C403.215 93.6651 415.673 126.41 422.745 143.633C427.905 127.002 441.675 95.0634 448.477 77.9442Z" fill="#012F61"/>
<path d="M624.72 0.387309C640.92 -0.430391 663.945 0.301799 680.693 0.295047C659.37 24.1861 635.55 48.6241 613.605 72.1986C608.528 77.4874 603.458 83.071 598.448 88.4521C589.65 78.2631 580.77 68.1393 571.823 58.0794C584.888 42.5739 610.35 14.4953 624.72 0.387309Z" fill="#1E76C7"/>
<path d="M604.155 114.178C606.9 116.067 621.09 133.438 624.57 137.56L668.97 190.058L644.693 190.244L620.962 190.094C607.717 175.697 591.72 155.682 578.753 140.494C586.253 131.826 595.995 122.385 604.155 114.178Z" fill="#115AA5"/>
</svg>
